<svg width="349" height="303" viewBox="0 0 349 303" fill="none" xmlns="http://www.w3.org/2000/svg">
<g id="OBJECTS">
<path id="Vector" d="M170.782 197.89L60.6369 166.065C59.2209 165.656 59.2999 163.624 60.7429 163.325L237.069 126.85C237.283 126.806 237.504 126.812 237.715 126.868L342.968 154.647C344.389 155.022 344.363 157.049 342.933 157.387L171.499 197.908C171.262 197.964 171.015 197.958 170.782 197.89Z" fill="#D56327"/>
<path id="Vector_2" d="M338.743 127.304C327.943 129.361 317.211 131.755 306.477 134.13C295.812 136.489 285.146 138.839 274.487 141.226C253.171 146.001 231.901 150.992 210.563 155.664C204.574 156.975 198.585 158.286 192.596 159.598C186.539 160.924 180.444 162.091 174.403 163.485C172.925 163.826 173.406 165.989 174.89 165.67C185.632 163.36 196.314 160.714 207.032 158.284C217.684 155.868 228.356 153.543 239.029 151.224C260.376 146.585 281.696 141.828 303.011 137.043C315.044 134.342 327.094 131.698 339.042 128.642C339.941 128.411 339.656 127.13 338.743 127.304Z" fill="#F3CD7C"/>
<g id="Group">
<g id="Group_2">
<g id="Group_3">
<path id="Vector_3" d="M170.513 163.612V191.874L63.518 162.76C63.856 161.746 64.114 160.716 64.291 159.67V159.654C64.387 159.123 64.452 158.592 64.5 158.045C64.597 157.063 64.645 156.049 64.629 155.068C64.613 154.505 64.597 153.941 64.548 153.394C64.435 151.704 64.178 150.046 63.84 148.469C63.711 147.857 63.566 147.246 63.422 146.666C63.003 145.057 62.537 143.56 62.054 142.24C61.813 141.564 61.571 140.936 61.33 140.373C60.396 138.023 59.624 136.591 59.624 136.591L170.513 163.612Z" fill="#F8F2EC"/>
<g id="Group_4">
<g id="Group_5">
<path id="Vector_4" d="M170.513 170.211L61.33 140.372C61.571 140.935 61.813 141.563 62.054 142.239L170.513 171.869V170.211Z" fill="#332D29"/>
</g>
<g id="Group_6">
<path id="Vector_5" d="M170.513 188.929V190.603L64.291 159.67V159.654C64.387 159.123 64.452 158.592 64.5 158.045L170.513 188.929Z" fill="#332D29"/>
</g>
<g id="Group_7">
<path id="Vector_6" d="M170.513 182.33L64.548 153.393C64.596 153.94 64.612 154.503 64.629 155.067L170.513 184.005V182.33Z" fill="#332D29"/>
</g>
<g id="Group_8">
<path id="Vector_7" d="M170.513 177.357L63.422 146.665C63.567 147.244 63.712 147.856 63.84 148.468L170.513 179.031V177.357Z" fill="#332D29"/>
</g>
</g>
<path id="Vector_8" d="M167.995 167.898L57.494 135.971C56.078 135.562 56.157 133.53 57.6 133.231L233.926 96.756C234.14 96.712 234.361 96.718 234.573 96.774L344.144 126.638L167.995 167.898Z" fill="#D56327"/>
<path id="Vector_9" d="M348.307 154.857C348.387 155.565 347.921 156.209 347.229 156.37L340.357 157.995L337.444 158.687L330.974 160.216L328.705 160.747L184.162 194.915L181.925 195.446L172.719 197.619C171.882 197.812 171.078 197.249 170.981 196.396L170.514 191.874L170.369 190.554L170.192 188.832L169.661 183.778L169.484 182.056V182.04L169.13 178.628L168.953 176.906L168.357 171.273L168.18 169.567L168.003 167.893L170.514 167.298L178.11 165.511L180.074 165.044L324.906 130.811L326.001 130.554L342.9 126.563C343.158 126.499 343.415 126.482 343.656 126.515C343.672 126.515 343.672 126.515 343.688 126.515L344.139 126.644C344.879 126.902 345.459 127.577 345.539 128.43L348.307 154.857Z" fill="#D56327"/>
<g id="Group_9">
<path id="Vector_10" d="M184.161 194.916L181.924 195.447C181.232 185.404 179.751 175.474 178.11 165.528V165.512C178.062 165.142 177.997 164.772 177.933 164.401C177.724 163.146 179.575 162.695 179.848 163.95C179.928 164.32 180.009 164.674 180.073 165.044V165.06C182.149 174.878 183.308 184.905 184.161 194.916Z" fill="#F3CD7C"/>
<path id="Vector_11" d="M340.356 157.995L337.443 158.687C337.33 157.721 337.218 156.756 337.105 155.774C336.767 152.893 336.413 149.996 336.027 147.115C335.238 141.305 334.369 135.479 333.532 129.669C333.5 129.444 333.548 129.25 333.645 129.106C333.919 128.655 334.627 128.494 335.093 128.768C335.302 128.848 335.463 129.042 335.528 129.315C336.767 135.109 337.813 140.951 338.731 146.793C339.182 149.738 339.616 152.684 340.035 155.645C340.147 156.418 340.243 157.207 340.356 157.995Z" fill="#F3CD7C"/>
<path id="Vector_12" d="M330.973 160.216L328.704 160.747C328.607 159.91 328.495 159.089 328.382 158.252C328.012 155.355 327.61 152.458 327.191 149.577C326.354 143.654 325.437 137.748 324.552 131.825C324.52 131.6 324.552 131.391 324.616 131.213C324.697 131.052 324.793 130.923 324.906 130.811C325.212 130.554 325.646 130.441 326.001 130.554C326.146 130.602 326.275 130.683 326.355 130.811C326.484 130.94 326.564 131.101 326.596 131.294C327.69 137.233 328.624 143.204 329.477 149.175C329.911 152.136 330.314 155.098 330.7 158.059C330.796 158.784 330.893 159.492 330.973 160.216Z" fill="#F3CD7C"/>
</g>
<g id="Group_10">
<path id="Vector_13" d="M319.055 141.395C318.862 140.976 318.427 140.655 317.848 140.783C287.092 147.671 220.256 163.443 189.307 169.511C188.744 169.624 188.018 169.965 188.148 171.153C188.634 175.582 189.476 180.09 190.208 184.543C190.438 185.942 191.689 185.557 192.027 185.492C222.815 179.65 306.765 160.395 320.526 156.386C320.971 156.256 321.658 155.932 321.477 154.959C320.86 151.631 320.119 146.952 319.055 141.395Z" fill="#F3CD7C"/>
</g>
</g>
<path id="Vector_14" d="M149.931 178.361L158.399 180.686C154.442 183.986 157.384 188.659 155.516 191.495C151.708 197.273 142.129 193.104 140.706 199.541L129.695 196.308C131.028 188.668 147.685 191.8 147.683 187.6C147.683 184.624 147.499 178.912 149.931 178.361Z" fill="#75B87A"/>
</g>
<g id="Group_11">
<g id="Group_12">
<g id="Group_13">
<path id="Vector_15" d="M155.518 152.923L68.059 128.159C66.372 127.681 66.393 125.283 68.089 124.835L198.585 90.373C198.901 90.29 199.234 90.298 199.546 90.396L290.739 119.312C292.415 119.843 292.312 122.248 290.598 122.635L156.368 152.945C156.087 153.009 155.795 153.001 155.518 152.923Z" fill="#3C3E5D"/>
<path id="Vector_16" d="M69.881 84.113L197.446 56.193C197.708 56.136 197.98 56.14 198.24 56.207L295.503 81.019C296.266 81.214 296.8 81.901 296.8 82.688V119.857C296.8 120.662 296.242 121.36 295.457 121.538L158.042 152.567C156.965 152.81 155.94 151.991 155.94 150.886V119.795C155.94 119.069 155.485 118.421 154.802 118.175L69.664 87.416C68.039 86.829 68.194 84.482 69.881 84.113Z" fill="#69668B"/>
<g id="Group_14">
<path id="Vector_17" d="M155.947 118.581V145.861L71.565 123.925C72.482 122.718 73.223 121.43 73.818 120.111C74.043 119.612 74.236 119.129 74.413 118.614C75.17 116.506 75.572 114.301 75.733 112.064L75.797 110.406C75.813 108.41 75.668 106.431 75.378 104.499C75.298 103.904 75.201 103.308 75.088 102.729C74.412 99.076 73.35 95.728 72.352 93.105C72.095 92.397 71.837 91.737 71.58 91.141C70.646 88.872 69.922 87.504 69.922 87.504L155.947 118.581Z" fill="#F8F2EC"/>
</g>
<g id="Group_15">
<g id="Group_16">
<path id="Vector_18" d="M155.947 120.513V122.219L72.3529 93.104C72.0959 92.396 71.8379 91.736 71.5809 91.14L155.947 120.513Z" fill="#332D29"/>
</g>
<g id="Group_17">
<path id="Vector_19" d="M155.947 126.934V128.624L75.379 104.499C75.299 103.904 75.202 103.308 75.089 102.729L155.947 126.934Z" fill="#332D29"/>
</g>
<g id="Group_18">
<path id="Vector_20" d="M155.947 135.529V137.219L75.7329 112.063L75.7979 110.406L155.947 135.529Z" fill="#332D29"/>
</g>
<g id="Group_19">
<path id="Vector_21" d="M155.947 141.596V143.27L73.8179 120.11C74.0429 119.611 74.2359 119.128 74.4129 118.613L155.947 141.596Z" fill="#332D29"/>
</g>
</g>
<path id="Vector_22" d="M290.863 83.548C282.198 85.091 273.686 87.401 265.142 89.509C256.598 91.617 248.056 93.735 239.514 95.849C222.429 100.077 205.344 104.306 188.259 108.534C178.616 110.921 168.974 113.299 159.31 115.601C157.63 116.001 158.232 118.445 159.906 118.019C176.962 113.677 194.071 109.541 211.165 105.349C228.259 101.156 245.354 96.969 262.446 92.771C272.085 90.403 281.83 88.287 291.292 85.288C292.477 84.912 292.088 83.329 290.863 83.548Z" fill="#3C3E5D"/>
</g>
<path id="Vector_23" d="M285.592 98.004C285.569 96.854 283.83 96.853 283.807 98.004C283.705 102.996 283.459 108.039 283.694 113.028C283.755 114.323 285.645 114.324 285.706 113.028C285.94 108.039 285.694 102.996 285.592 98.004Z" fill="#3C3E5D"/>
<path id="Vector_24" d="M291.622 111.572C291.6 109.37 291.578 107.168 291.556 104.966C291.512 100.561 291.447 96.158 291.368 91.754C291.347 90.555 289.529 90.555 289.507 91.754C289.428 96.158 289.363 100.561 289.319 104.966C289.298 107.101 289.276 109.236 289.255 111.372C289.233 113.565 289.04 115.875 289.422 118.044C289.601 119.063 291.274 119.063 291.453 118.044C291.823 115.938 291.643 113.701 291.622 111.572Z" fill="#3C3E5D"/>
<path id="Vector_25" d="M170.468 131.983C170.421 128.456 170.472 124.905 170.222 121.386C170.136 120.18 168.434 120.179 168.349 121.386C168.098 124.905 168.149 128.456 168.103 131.983C168.056 135.53 167.994 139.048 168.374 142.58C168.5 143.752 170.071 143.753 170.197 142.58C170.576 139.048 170.515 135.53 170.468 131.983Z" fill="#3C3E5D"/>
<path id="Vector_26" d="M164.269 134.076C164.251 129.492 164.166 124.909 164.079 120.326C164.056 119.111 162.216 119.11 162.193 120.326C162.106 124.909 162.021 129.492 162.003 134.076C161.985 138.654 161.852 143.251 162.061 147.826C162.124 149.211 164.148 149.211 164.211 147.826C164.42 143.251 164.287 138.654 164.269 134.076Z" fill="#3C3E5D"/>
</g>
<path id="Vector_27" d="M144.017 125.052L152.708 127.655C143.735 133.389 151.129 137.369 144.176 147.363L133.728 143.46C142.367 135.454 136.812 130.629 144.017 125.052Z" fill="#E8C977"/>
</g>
<g id="Group_20">
<g id="Group_21">
<path id="Vector_28" d="M247.582 231.122L339.389 207.013C341.877 206.36 342.9 203.387 341.342 201.34L274.568 113.65C273.603 112.382 271.92 111.898 270.429 112.459L190.249 142.617C188.068 143.437 187.226 146.08 188.53 148.011L243.677 229.653C244.534 230.922 246.1 231.511 247.582 231.122Z" fill="#A15B3B"/>
<path id="Vector_29" d="M339.872 187.144C339.872 187.144 338.907 188.649 338.18 191.058C338.069 191.428 337.962 191.83 337.857 192.252C337.59 193.387 337.404 194.668 337.377 196.045C337.368 196.392 337.372 196.759 337.396 197.123C337.432 198.083 337.568 199.083 337.822 200.111C337.894 200.438 337.988 200.772 338.094 201.115L338.095 201.125C338.374 202.013 338.737 202.901 339.206 203.807L248.8 226.269L246.83 210.512L339.872 187.144Z" fill="#F8F2EC"/>
<g id="Group_22">
<g id="Group_23">
<path id="Vector_30" d="M338.18 191.057C338.069 191.427 337.962 191.829 337.857 192.251L248.507 219.07L248.215 218.079L338.18 191.057Z" fill="#332D29"/>
</g>
<g id="Group_24">
<path id="Vector_31" d="M337.378 196.044C337.369 196.391 337.373 196.758 337.397 197.122L248.276 222.077L248.146 221.034L337.378 196.044Z" fill="#332D29"/>
</g>
<g id="Group_25">
<path id="Vector_32" d="M248.458 223.533L337.824 200.11C337.896 200.437 337.99 200.771 338.096 201.114L338.097 201.124L248.588 224.575L248.458 223.533Z" fill="#332D29"/>
</g>
</g>
<path id="Vector_33" d="M339.239 187.397L252.285 216.013C251.268 216.35 250.452 217.123 250.062 218.116L246.545 227.06C245.487 229.751 241.835 230.155 240.214 227.757L235.89 221.355L219.25 196.715L204.297 174.581L199.624 167.657L197.668 164.766L197.5 164.514L197.179 164.04L196.818 163.498L196.303 162.734L194.295 159.755L191.156 155.114L190.562 154.224L190.396 153.983L188.311 150.898L185.751 147.118C185.211 146.326 185.017 145.354 185.202 144.408L188.815 126.087C189.068 124.839 189.947 123.817 191.132 123.396L270.294 95.03C271.759 94.501 273.392 94.978 274.342 96.202L278.978 102.166L285.186 110.136L286.736 112.134L289.308 115.43L314.683 148.028L318.493 152.921L320.917 156.037L333.136 171.739L340.945 181.774C342.474 183.742 341.596 186.62 339.239 187.397Z" fill="#A15B3B"/>
<path id="Vector_34" d="M239.102 204.251C231.454 192.989 204.426 152.242 200.118 146.763C198.904 148.133 198.651 150.966 198.651 150.966C206.903 163.454 236.991 208.138 236.903 208.753C236.903 208.753 237.775 205.856 239.102 204.251Z" fill="#BD805A"/>
<path id="Vector_35" d="M260.69 211.097C260.593 210.192 260.181 209.129 259.137 208.732C257.864 208.247 256.849 208.199 255.588 208.749C255.464 208.803 255.28 208.882 255.233 208.909C254.999 208.98 254.761 209.045 254.524 209.103C253.242 209.421 251.906 209.715 250.784 210.379C248.365 211.81 246.796 214.306 245.375 216.496C243.939 218.709 242.729 221.026 241.726 223.418C240.632 226.028 240.069 228.971 242.201 231.286C243.724 232.94 247.141 231.589 246.99 229.528C246.906 228.381 246.785 228.065 247.054 227.101C247.344 226.061 247.627 225.498 248.066 224.615C249.038 222.661 250.122 220.758 251.373 218.932C251.966 218.067 252.602 217.229 253.248 216.395C253.313 216.311 253.354 216.257 253.39 216.209C253.404 216.194 253.409 216.19 253.429 216.168C253.61 215.972 253.806 215.79 253.998 215.604C254.054 215.549 254.128 215.49 254.174 215.453C254.276 215.401 254.427 215.324 254.519 215.273C254.668 215.229 254.953 215.133 255.001 215.121C255.253 215.056 255.509 215 255.764 214.943C256.219 214.84 256.675 214.739 257.12 214.604C258.884 214.071 260.899 213.038 260.69 211.097Z" fill="#E8C977"/>
<path id="Vector_36" d="M195.528 121.979C192.245 120.749 189.723 123.6 188.624 126.317C187.576 128.909 186.766 131.654 185.985 134.339C185.226 136.951 184.493 139.654 184.194 142.364C184.052 143.652 184.046 145.202 184.664 146.374C184.907 146.835 185.226 147.431 185.592 147.799C186.123 148.335 186.659 148.376 187.332 148.551C188.034 148.733 188.812 148.182 188.785 147.43C188.788 147.51 188.589 147.913 188.718 147.582C188.838 147.273 188.941 147.009 188.958 146.673C188.962 146.597 188.927 146.189 188.905 146.026C188.923 145.935 188.949 145.712 188.955 145.673C189.11 144.788 189.144 143.923 189.307 143.036C189.702 140.88 190.196 138.735 190.774 136.62C191.322 134.612 191.904 132.597 192.756 130.697C193.186 129.739 193.568 128.751 194.037 127.81C194.133 127.616 194.231 127.416 194.338 127.229C194.493 126.958 194.404 127.01 194.563 126.902C194.632 126.855 194.631 126.831 194.625 126.821C194.644 126.831 194.708 126.852 194.897 126.876C196.111 127.029 197.221 125.803 197.346 124.703C197.494 123.392 196.724 122.428 195.528 121.979Z" fill="#E8C977"/>
<path id="Vector_37" d="M254.4 208.748C253.664 207.275 252.686 205.967 251.751 204.614C250.815 203.26 249.879 201.906 248.943 200.551C247.12 197.914 245.296 195.278 243.467 192.644C239.761 187.305 236.037 181.981 232.293 176.668C224.782 166.009 217.332 155.304 209.956 144.551C205.814 138.513 201.667 132.48 197.517 126.448C196.849 125.477 195.339 126.522 196.012 127.488C203.438 138.155 210.881 148.809 218.27 159.501C225.684 170.229 232.964 181.049 240.368 191.783C242.435 194.778 244.502 197.773 246.575 200.765L249.684 205.252C250.742 206.78 251.731 208.362 252.996 209.727C253.583 210.359 254.783 209.515 254.4 208.748Z" fill="#E8C977"/>
<path id="Vector_38" d="M340.952 180.732C340.383 179.642 339.781 178.568 339.148 177.514C338.52 176.468 337.757 175.519 337.092 174.497C337.091 174.49 337.092 174.483 337.091 174.476C336.879 172.739 334.174 173.077 334.397 174.813C334.536 175.899 333.89 176.942 333.101 177.646C332.586 178.106 331.995 178.465 331.363 178.74C330.633 179.058 329.936 179.091 329.149 179.115C328.16 179.145 327.799 180.619 328.586 181.163C329.287 181.647 329.809 182.107 330.096 182.935C330.342 183.646 330.405 184.431 330.251 185.169C329.867 187.01 328.322 188.596 326.825 189.622C326.299 189.983 326.169 190.754 326.479 191.286C326.827 191.884 327.439 192.035 328.079 191.86C330.63 191.161 333.179 190.461 335.723 189.736C337.697 189.174 340.131 188.817 341.463 187.08C342.983 185.098 341.963 182.669 340.952 180.732Z" fill="#E8C977"/>
<path id="Vector_39" d="M281.471 104.272C280.107 102.226 278.613 100.259 277.04 98.369C276.235 97.401 275.418 96.435 274.567 95.506C273.861 94.735 273.077 94.145 272.007 94.022C270.975 93.904 269.958 94.244 269.012 94.615C267.827 95.08 266.649 95.566 265.468 96.042C263.578 96.803 259.676 98.406 258.212 99.016C256.371 99.782 257.301 102.39 258.872 102.289C261.47 102.123 264.198 101.918 266.65 102.968C268.612 103.808 270.289 105.528 270.472 107.72C270.605 109.315 272.91 109.547 273.495 108.127C273.882 107.189 274.44 105.775 275.425 105.312C276.694 104.715 278.156 105.863 279.137 106.559C280.667 107.646 282.51 105.831 281.471 104.272Z" fill="#E8C977"/>
<path id="Vector_40" d="M206.011 122.111C206.341 121.441 206.603 120.787 207.073 120.199C207.518 119.642 207.465 119.029 207.159 118.56C207.152 118.539 207.148 118.517 207.14 118.497C206.836 117.783 206.111 117.617 205.433 117.81C202.88 118.537 200.338 119.298 197.807 120.096C196.495 120.51 195.195 120.948 193.899 121.408C192.697 121.835 191.544 122.413 191.395 123.842C191.26 125.134 192.11 126.158 192.8 127.148C193.535 128.203 194.248 129.275 194.972 130.338C196.382 132.409 197.767 134.611 199.677 136.266C201.103 137.501 203.139 135.666 202.467 134.067C202.185 133.396 201.909 132.717 201.776 132.044C201.667 131.492 201.618 130.86 201.792 130.515C202.326 129.458 204.069 129.547 205.204 129.668C206.567 129.814 207.798 128.018 206.746 126.906C205.952 126.067 205.426 125.026 205.497 123.846C205.533 123.227 205.738 122.666 206.011 122.111Z" fill="#E8C977"/>
<path id="Vector_41" d="M271.81 205.863C269.932 205.283 268.17 205.633 266.262 205.489C264.408 205.349 264.179 203.8 264.469 202.206C264.834 200.199 262.262 199.5 261.075 200.785C259.384 202.616 256.499 203.327 254.162 202.442C252.925 201.974 251.827 201.211 250.708 200.52C249.398 199.71 248.071 199.051 246.611 198.554C245.431 198.152 244.466 198.987 244.43 200.008C244.258 200.381 244.246 200.841 244.516 201.291C246.085 203.912 247.688 206.504 249.377 209.05C250.814 211.215 252.297 213.701 255.025 214.308C257.687 214.901 260.619 213.51 263.089 212.662C266.024 211.654 268.923 210.55 271.789 209.361C273.198 208.776 273.453 206.37 271.81 205.863Z" fill="#E8C977"/>
</g>
<g id="Group_26">
<path id="Vector_42" d="M278.337 137.856C284.947 149.36 282.772 161.194 273.48 164.289C264.188 167.384 251.297 160.567 244.688 149.064C238.078 137.561 240.253 125.726 249.545 122.631C258.837 119.536 271.727 126.352 278.337 137.856Z" fill="#BD805A"/>
<g id="Group_27">
<path id="Vector_43" d="M304.617 167.517C304.123 166.65 303.579 165.819 303.035 164.987C296.289 167.086 289.562 169.249 282.863 171.495C276.223 173.721 269.47 175.843 262.976 178.492C263.749 179.371 264.581 180.222 265.435 181.114C265.61 181.297 265.782 181.485 265.956 181.669C272.054 179.707 278.07 177.432 284.14 175.402C291.149 173.058 298.185 170.798 305.245 168.614C305.035 168.249 304.825 167.883 304.617 167.517Z" fill="#BD805A"/>
<path id="Vector_44" d="M302.459 178.998C301.818 177.89 301.124 176.812 300.415 175.746C298.552 176.25 296.712 176.936 294.883 177.519C292.875 178.159 290.867 178.799 288.86 179.438C284.877 180.707 280.895 181.976 276.913 183.245C277.771 184.406 278.599 185.589 279.41 186.785C282.941 185.66 286.472 184.535 290.003 183.409L296.258 181.416C298.38 180.74 300.576 180.163 302.64 179.324C302.579 179.216 302.521 179.106 302.459 178.998Z" fill="#BD805A"/>
</g>
</g>
<path id="Vector_45" d="M254.342 220.344L261.835 218.246C261.835 218.246 264.861 220.371 265.208 224.65C265.492 228.149 269.686 230.857 269.686 230.857L263.394 234.891C263.394 234.891 258.849 232.694 258.439 227.322C258.118 223.125 254.342 220.344 254.342 220.344Z" fill="#A74363"/>
</g>
<g id="Group_28">
<g id="Group_29">
<path id="Vector_46" d="M105.078 88.1479L191.523 114.157C192.176 114.354 192.875 114.332 193.514 114.097L288.08 79.27C289.69 78.677 289.699 76.404 288.095 75.798L200.658 42.726L107.817 50.83C106.326 50.96 105.149 52.149 105.033 53.641L102.636 84.5829C102.511 86.1979 103.527 87.6819 105.078 88.1479Z" fill="#E8C977"/>
<path id="Vector_47" d="M104.361 62.324L105.071 53.157C105.169 51.892 106.038 50.819 107.255 50.46L207.982 20.742C208.26 20.66 208.556 20.657 208.835 20.734L290.465 43.091C291.942 43.496 292.012 45.564 290.566 46.068L189.856 81.153L113.397 57.291L111.03 63.773C109.657 67.534 104.051 66.318 104.361 62.324Z" fill="#E8C977"/>
<path id="Vector_48" d="M258.712 45.641C242.838 39.515 226.25 34.008 209.978 28.831C207.762 28.126 205.376 28.104 203.154 28.789C193.605 31.732 184.656 34.921 174.946 37.797C167.789 39.917 160.613 42.045 153.669 44.768C152.144 45.366 152.218 47.55 153.777 48.051C171.872 53.865 189.77 59.855 207.974 65.403C210.269 66.102 212.724 66.803 215.028 66.135L258.712 48.885C260.184 48.305 260.188 46.21 258.712 45.641Z" fill="#FAEBC7"/>
<path id="Vector_49" d="M288.553 75.968L192.805 109.81L108.697 84.052L111.542 56.701L189.86 81.155L197.076 78.647C197.093 78.632 197.093 78.632 197.093 78.632L290.878 45.961C290.878 45.961 276.44 63.956 288.553 75.968Z" fill="white"/>
<path id="Vector_50" d="M288.553 75.968L192.805 109.81C185.063 91.389 191.925 80.437 191.925 80.437C191.942 80.422 290.877 45.961 290.877 45.961C290.877 45.961 276.44 63.956 288.553 75.968Z" fill="#F8F2EC"/>
<g id="Group_30">
<g id="Clip path group">
<mask id="mask0_44_200" style="mask-type:luminance" maskUnits="userSpaceOnUse" x="108" y="45" width="183" height="65">
<g id="SVGID_00000071521589348494365830000010309590221698829735_">
<path id="Vector_51" d="M288.553 75.968L192.805 109.81L108.697 84.052L111.542 56.701L189.86 81.155L197.076 78.647C197.093 78.632 197.093 78.632 197.093 78.632L290.878 45.961C290.877 45.961 276.44 63.956 288.553 75.968Z" fill="white"/>
</g>
</mask>
<g mask="url(#mask0_44_200)">
<g id="Group_31">
<g id="Group_32">
<path id="Vector_52" d="M190.094 86.024L189.836 85.941L108.217 59.531L108.712 57.999L190.073 84.326L294.071 47.782L294.604 49.299L190.094 86.024Z" fill="#332D29"/>
</g>
<g id="Group_33">
<path id="Vector_53" d="M191.324 106.655L191.059 106.57L106.688 79.269L107.183 77.737L191.289 104.953L292.529 67.524L293.087 69.033L191.324 106.655Z" fill="#332D29"/>
</g>
<g id="Group_34">
<path id="Vector_54" d="M189.568 92.762L103.922 65.611L104.408 64.076L189.554 91.068L297.758 54.842L298.27 56.369L189.568 92.762Z" fill="#332D29"/>
</g>
<g id="Group_35">
<path id="Vector_55" d="M189.856 99.136L189.602 99.055L103.471 71.4L103.963 69.867L189.839 97.441L297.304 60.634L297.826 62.157L189.856 99.136Z" fill="#332D29"/>
</g>
</g>
</g>
</g>
</g>
</g>
<path id="Vector_56" d="M116.654 69.652L125.202 72.362C121.653 73.69 120.545 79.155 119.565 86.793C118.81 92.678 115.537 96.322 115.537 96.191C115.537 96.061 107.174 92.932 107.174 92.932C107.174 92.932 110.47 88.901 111.749 82.789C112.876 77.4 112.966 71.885 116.654 69.652Z" fill="#D56327"/>
</g>
<g id="Group_36">
<g id="Group_37">
<g id="Group_38">
<path id="Vector_57" d="M222.786 84.214L306.507 54.283C307.985 53.755 307.935 51.648 306.432 51.196C283.451 44.29 184.612 14.58 185.02 14.564C185.401 14.549 125.812 35.284 104.803 42.592C102.475 43.402 102.517 46.704 104.862 47.464L218.373 84.28C219.809 84.746 221.362 84.723 222.786 84.214Z" fill="#A74363"/>
<path id="Vector_58" d="M186.337 1.058L100.787 26.607C98.4929 27.292 96.9559 29.444 97.0509 31.836L97.4349 41.454C97.5219 43.646 98.9669 45.552 101.054 46.229L215.478 83.341C217.958 84.145 220.48 82.234 220.376 79.629L220.07 71.963C219.98 69.719 221.332 67.667 223.429 66.862L303.073 36.31C304.239 35.863 304.167 34.19 302.968 33.844L189.29 1.043C188.324 0.765997 187.299 0.769997 186.337 1.058Z" fill="#A74363"/>
<path id="Vector_59" d="M212.123 50.23L261.554 32.558C262.425 32.247 262.394 31.004 261.508 30.737C249.222 27.045 200.381 12.297 191.287 9.55098C190.337 9.26398 189.328 9.28398 188.391 9.61198C181.693 11.956 153.364 21.867 142.464 25.658C141.091 26.135 141.113 28.084 142.496 28.532L209.517 50.269C210.366 50.544 211.282 50.53 212.123 50.23Z" fill="#BA637F"/>
<path id="Vector_60" d="M304.553 51.857L224.024 80.466C222.441 81.028 220.781 80.083 220.398 78.538C220.347 78.359 220.321 78.168 220.309 77.963L220.283 77.235L220.219 75.703L220.168 74.363L220.053 71.631C220.053 71.503 220.053 71.376 220.066 71.248C220.079 70.737 220.181 70.24 220.347 69.78C220.819 68.516 221.802 67.482 223.117 66.984L301.705 36.831C301.705 36.831 301.309 38.618 301.182 41.005C301.157 41.439 301.131 41.899 301.131 42.371C301.131 43.022 301.144 43.711 301.208 44.414C301.234 44.848 301.285 45.282 301.361 45.716C301.514 46.763 301.77 47.797 302.165 48.729C302.331 49.125 302.51 49.508 302.739 49.865C303.2 50.644 303.8 51.321 304.553 51.857Z" fill="#F8F2EC"/>
<g id="Group_39">
<g id="Group_40">
<path id="Vector_61" d="M301.183 41.006C301.158 41.44 301.132 41.9 301.132 42.372L220.067 71.249C220.08 70.738 220.182 70.241 220.348 69.781L301.183 41.006Z" fill="#332D29"/>
</g>
<g id="Group_41">
<path id="Vector_62" d="M301.362 45.716L220.221 75.704L220.17 74.364L301.209 44.415C301.234 44.848 301.285 45.282 301.362 45.716Z" fill="#332D29"/>
</g>
<g id="Group_42">
<path id="Vector_63" d="M302.741 49.865L220.4 78.538C220.349 78.359 220.323 78.168 220.311 77.963L220.285 77.235L302.167 48.728C302.332 49.125 302.511 49.508 302.741 49.865Z" fill="#332D29"/>
</g>
</g>
</g>
<path id="Vector_64" d="M214.816 64.192C207.669 61.455 200.319 59.267 193.028 56.948C185.684 54.612 178.339 52.282 170.997 49.939C156.365 45.269 141.737 40.585 127.115 35.883C118.919 33.248 110.721 30.614 102.523 27.986C101.323 27.602 100.728 29.467 101.929 29.848C116.569 34.494 131.215 39.122 145.859 43.754C160.503 48.386 175.128 53.08 189.757 57.758C197.952 60.379 206.114 63.196 214.45 65.34C215.203 65.536 215.543 64.471 214.816 64.192Z" fill="#BA637F"/>
<g id="Group_43">
<path id="Vector_65" d="M190.089 67.266C190.341 65.597 190.67 63.555 191.418 61.8C182.692 59.032 172.085 55.614 166.927 54.007C166.626 53.913 166.372 53.9739 166.166 54.1069C166.038 54.4489 165.921 54.795 165.825 55.145C165.81 55.201 165.748 55.46 165.727 55.537C165.692 55.71 165.658 55.883 165.628 56.056C165.551 56.51 165.492 56.9659 165.448 57.4239C165.355 58.3909 165.33 59.364 165.359 60.337C165.362 60.444 165.378 60.714 165.381 60.782C165.395 60.967 165.409 61.152 165.427 61.336C165.474 61.823 165.534 62.309 165.609 62.792C165.73 63.578 165.899 64.356 166.099 65.126C170.83 66.812 175.495 68.513 180.144 70.1C181.417 70.535 185.91 72.0609 190.348 73.5659C189.852 71.5099 189.777 69.334 190.089 67.266Z" fill="#BA637F"/>
<path id="Vector_66" d="M202.254 65.178C200.213 64.567 197.22 63.634 193.796 62.553C193.597 63.006 193.44 63.474 193.306 63.895C192.888 65.202 192.625 66.554 192.424 67.91C192.142 69.814 192.315 71.753 192.826 73.602C192.909 73.903 193.002 74.2 193.093 74.498C196.336 75.597 199.153 76.551 200.109 76.872C200.661 77.057 201.212 77.242 201.763 77.426C201.52 75.809 201.403 74.176 201.372 72.567C201.326 70.174 201.522 67.529 202.254 65.178Z" fill="#BA637F"/>
<path id="Vector_67" d="M119.605 38.217C117.564 37.606 114.572 36.673 111.147 35.592C110.947 36.045 110.791 36.513 110.657 36.934C110.239 38.241 109.976 39.593 109.775 40.949C109.493 42.854 109.667 44.792 110.177 46.641C110.26 46.942 110.353 47.239 110.444 47.537C113.687 48.636 116.504 49.59 117.46 49.911C118.012 50.096 118.563 50.281 119.114 50.465C118.871 48.847 118.754 47.215 118.723 45.606C118.677 43.213 118.873 40.568 119.605 38.217Z" fill="#BA637F"/>
<path id="Vector_68" d="M161.135 55.219C161.228 54.674 161.345 54.113 161.493 53.554C156.791 51.829 151.968 50.458 147.176 49C141.952 47.411 136.729 45.822 131.505 44.233C128.513 43.323 125.525 42.397 122.523 41.521C122.398 41.485 122.287 41.488 122.176 41.491C122.128 41.718 122.078 41.946 122.029 42.172C121.932 42.615 121.85 43.06 121.78 43.507C121.823 43.526 121.85 43.557 121.899 43.572C132.355 46.893 142.885 49.997 153.379 53.2C155.948 53.984 158.514 54.713 161.117 55.348C161.123 55.305 161.128 55.261 161.135 55.219Z" fill="#BA637F"/>
<path id="Vector_69" d="M160.773 57.963C160.252 57.814 159.729 57.675 159.219 57.533C157.842 57.151 156.464 56.772 155.09 56.377C152.343 55.588 149.606 54.7669 146.873 53.9299C141.408 52.2569 135.964 50.511 130.513 48.796C127.524 47.855 124.53 46.9339 121.532 46.0229C121.505 46.6389 121.495 47.255 121.523 47.873C121.533 48.085 121.56 48.2969 121.577 48.5099C132.128 51.7119 142.767 54.638 153.262 58.019C154.824 58.522 156.383 59.0319 157.94 59.5509C158.814 59.8419 159.711 60.172 160.619 60.435C160.636 59.611 160.691 58.786 160.773 57.963Z" fill="#BA637F"/>
</g>
</g>
<path id="Vector_70" d="M224.911 73.971L234.194 70.54C240.547 72.356 238.324 77.77 243.062 83.479L233.959 86.421C231.4 83.073 231.43 73.444 224.911 73.971Z" fill="#75B87A"/>
</g>
<g id="Group_44">
<g id="Group_45">
<g id="Group_46">
<path id="Vector_71" d="M1.27695 256.86L85.7909 207.684C87.9449 206.431 90.5189 206.117 92.9109 206.815L230.534 247.015C232.674 247.64 233.024 250.525 231.095 251.643L145.639 301.181C143.476 302.435 140.892 302.743 138.494 302.031L1.83095 261.482C-0.300053 260.85 -0.644054 257.977 1.27695 256.86Z" fill="#3C3E5D"/>
<path id="Vector_72" d="M155.498 218.206C131.038 192.566 92.294 192.566 92.294 192.566L4.096 239.399L12.363 240.655L3.151 244.711L4.316 255.781L79.061 279.807V267.511L155.498 218.206Z" fill="white"/>
<path id="Vector_73" d="M155.498 218.206L79.0619 267.512V279.808L139.758 294.924L224.377 244.174V233.38L213.663 230.141L223.163 222.943C223.163 222.943 199.184 203.869 155.498 218.206Z" fill="white"/>
<g id="Group_47">
<g id="Clip path group_2">
<mask id="mask1_44_200" style="mask-type:luminance" maskUnits="userSpaceOnUse" x="2" y="192" width="222" height="103">
<g id="SVGID_00000181085553247888414300000014007744132454839452_">
<path id="Vector_74" d="M212.624 230.141L222.124 222.943C222.124 222.943 198.146 203.869 154.46 218.205C130 192.565 91.2559 192.565 91.2559 192.565L3.05791 239.398L11.3249 240.654L2.11292 244.71L3.27792 255.78L78.0229 279.806L138.719 294.922L223.338 244.172V233.38L212.624 230.141Z" fill="white"/>
</g>
</mask>
<g mask="url(#mask1_44_200)">
<g id="Group_48">
<g id="Group_49">
<path id="Vector_75" d="M78.7908 282.119H77.2578V267.093L154.045 217.561L154.876 218.849L78.7908 267.929V282.119Z" fill="#332D29"/>
</g>
<g id="Group_50">
<path id="Vector_76" d="M77.5439 268.108C48.4219 244.756 3.43586 240.206 2.98486 240.162L3.13187 238.635C3.58687 238.678 49.0189 243.269 78.5039 266.913L77.5439 268.108Z" fill="#332D29"/>
</g>
<g id="Group_51">
<path id="Vector_77" d="M77.6259 268.165C40.7659 245.744 -4.34014 245.476 -4.79114 245.476V243.943C-4.33614 243.943 41.1869 244.205 78.4229 266.856L77.6259 268.165Z" fill="#332D29"/>
</g>
<g id="Group_52">
<path id="Vector_78" d="M138.873 292.281L77.8329 276.515C77.2809 276.319 28.9389 259.009 -2.53711 254.213L-2.30611 252.698C29.3179 257.516 77.7989 274.876 78.2849 275.051L138.643 290.638L225.817 239.397L226.593 240.718L138.873 292.281Z" fill="#332D29"/>
</g>
<g id="Group_53">
<path id="Vector_79" d="M139.597 279.992L139.149 279.535C121.357 261.446 80.6059 267.226 78.4049 268.153L78.1519 267.55L78.0369 267.505L77.3269 267.83L77.6099 266.846C78.9189 265.946 121.025 259.728 139.788 278.008L221.693 222.31L222.555 223.577L139.597 279.992Z" fill="#332D29"/>
</g>
<g id="Group_54">
<path id="Vector_80" d="M138.078 282.971L137.731 282.826C99.4759 266.805 78.2939 268.266 78.0849 268.275L77.9629 266.748C78.1779 266.73 99.5449 265.234 137.975 281.267L227.393 230.458L228.151 231.791L138.078 282.971Z" fill="#332D29"/>
</g>
<g id="Group_55">
<path id="Vector_81" d="M138.826 287.6L138.49 287.476C138.158 287.352 104.93 275.095 78.2069 272.317L77.9069 272.221C44.1069 252.967 -1.37408 250.946 -1.83008 250.928L-1.76907 249.395C-1.31107 249.414 44.4099 251.44 78.5259 270.809C103.961 273.485 135.107 284.613 138.686 285.914L229.585 234.061L230.346 235.394L138.826 287.6Z" fill="#332D29"/>
</g>
</g>
</g>
</g>
</g>
</g>
<g id="Group_56">
<g id="Group_57">
<g id="Group_58">
<path id="Vector_82" d="M186.899 221.287C188.929 221.59 190.941 222.027 192.9 222.642C193.82 222.931 194.728 223.257 195.612 223.644C195.995 223.812 196.366 224.006 196.736 224.2C197.679 223.588 198.627 222.982 199.582 222.391C197.99 221.244 195.851 220.573 194.01 220.014C191.933 219.383 189.796 218.996 187.644 218.731C183.373 218.207 179.045 218.227 174.749 218.305C169.101 218.408 163.387 218.521 157.78 219.279C156.717 219.876 155.656 220.479 154.597 221.083C153.618 221.683 152.638 222.282 151.661 222.884C159.067 221.136 166.733 220.743 174.336 220.682C178.53 220.649 182.742 220.666 186.899 221.287Z" fill="#F8F2EC"/>
<path id="Vector_83" d="M165.652 227.09C169.891 227.218 174.137 227.516 178.32 228.239C181.306 228.755 184.105 229.609 186.907 230.571C188.044 229.825 189.187 229.088 190.33 228.352C186.794 226.821 182.823 225.989 179.077 225.347C174.714 224.599 170.291 224.256 165.87 224.119C161.471 223.983 157.066 224.029 152.667 224.099C151.617 224.116 150.566 224.151 149.516 224.207C147.712 225.319 145.907 226.431 144.104 227.544C143.961 227.633 143.819 227.724 143.676 227.812C146.7 227.232 149.799 227.106 152.891 227.062C157.145 227.002 161.401 226.962 165.652 227.09Z" fill="#F8F2EC"/>
<path id="Vector_84" d="M157.045 233.038C163.963 233.449 171.187 233.944 177.543 236.869C178.394 236.284 179.246 235.703 180.1 235.123C173.082 231.661 165.192 230.988 157.46 230.551C151.454 230.212 145.349 229.89 139.359 230.522C137.658 231.603 135.963 232.695 134.27 233.79C141.72 232.131 149.457 232.587 157.045 233.038Z" fill="#F8F2EC"/>
<path id="Vector_85" d="M132.819 239.203C136.987 239.275 141.156 239.528 145.302 239.957C149.334 240.374 153.383 240.918 157.35 241.764C160.376 242.409 163.3 243.347 165.76 245.193C166.552 244.618 167.356 244.06 168.15 243.489C165.523 241.237 162.156 240.035 158.81 239.302C154.685 238.398 150.442 237.895 146.243 237.483C141.783 237.045 137.301 236.806 132.819 236.813C131.741 236.815 130.641 236.83 129.534 236.862C128.246 237.699 126.959 238.535 125.669 239.368C125.588 239.42 125.506 239.471 125.424 239.524C127.87 239.29 130.318 239.16 132.819 239.203Z" fill="#F8F2EC"/>
<path id="Vector_86" d="M138.715 245.878C142.86 246.597 147.027 247.52 151.014 248.876C152.693 249.447 154.334 250.134 155.864 251.035C156.226 251.248 156.552 251.494 156.875 251.743C157.719 251.114 158.569 250.493 159.414 249.866C158.808 249.424 158.187 249.028 157.627 248.688C156.009 247.706 154.25 246.966 152.466 246.346C148.322 244.905 143.951 243.999 139.629 243.294C135.065 242.549 130.46 242.133 125.836 242.056C124.336 242.031 122.839 242.062 121.342 242.122C120.147 242.883 118.955 243.648 117.757 244.404C118.161 244.387 118.563 244.372 118.959 244.37C121.098 244.359 123.24 244.375 125.377 244.459C129.846 244.637 134.309 245.113 138.715 245.878Z" fill="#F8F2EC"/>
<path id="Vector_87" d="M141.773 255.036C143.565 255.625 145.337 256.272 147.024 257.121C147.545 257.383 148.053 257.671 148.553 257.971C149.361 257.365 150.171 256.762 150.98 256.156C150.234 255.687 149.452 255.277 148.734 254.915C146.963 254.024 145.093 253.329 143.209 252.72C138.95 251.342 134.607 250.154 130.234 249.195C124.655 247.972 118.971 247.223 113.284 247.222C111.882 248.101 110.48 248.98 109.077 249.857C115.943 249.389 122.863 250.206 129.579 251.695C133.69 252.607 137.772 253.72 141.773 255.036Z" fill="#F8F2EC"/>
</g>
<path id="Vector_88" d="M137.807 263.391C138.5 263.721 139.182 264.09 139.863 264.464C140.088 264.296 140.314 264.126 140.539 263.959C141.309 263.387 142.076 262.81 142.845 262.236C141.63 261.621 140.376 261.059 139.186 260.516C137.053 259.542 134.881 258.654 132.676 257.857C128.318 256.28 123.826 255.074 119.25 254.331C114.23 253.515 109.077 253.216 103.98 253.565C102.755 254.464 101.527 255.357 100.302 256.255C106.519 255.594 112.805 255.835 118.992 257.052C123.323 257.904 127.573 259.162 131.692 260.746C133.765 261.543 135.802 262.435 137.807 263.391Z" fill="#F8F2EC"/>
</g>
<path id="Vector_89" d="M80.901 221.787C88.084 224.769 94.939 228.58 101.226 233.16C102.969 234.43 104.66 235.768 106.304 237.162C106.457 237.292 106.605 237.429 106.758 237.56C107.882 236.829 109.01 236.103 110.137 235.376C109.965 235.235 109.796 235.095 109.635 234.957C108.042 233.586 106.4 232.276 104.726 231.007C101.493 228.556 98.108 226.307 94.593 224.28C87.603 220.25 80.084 217.078 72.281 215.015C69.258 214.216 66.129 213.492 62.988 213.062C61.564 213.779 60.146 214.511 58.725 215.234C62.444 216.133 66.186 216.861 69.869 217.925C73.605 219.005 77.307 220.295 80.901 221.787Z" fill="#F8F2EC"/>
<g id="Group_59">
<path id="Vector_90" d="M136.407 217.344C136.948 217.765 137.47 218.209 137.992 218.653C139.203 217.993 140.415 217.333 141.634 216.687C139.544 214.695 136.994 212.994 134.655 211.508C131.518 209.515 128.208 207.8 124.803 206.314C117.509 203.133 109.805 201.108 102.059 199.373C99.339 198.764 96.605 198.22 93.868 197.693C92.677 198.305 91.493 198.93 90.299 199.536C104.577 202.54 118.968 205.932 131.425 213.865C133.13 214.952 134.811 216.103 136.407 217.344Z" fill="#F8F2EC"/>
<path id="Vector_91" d="M129.166 223.525C129.191 223.541 129.217 223.557 129.242 223.572C130.495 222.847 131.751 222.13 133.012 221.418C132.95 221.377 132.885 221.333 132.824 221.293C131 220.088 129.111 218.97 127.211 217.888C123.436 215.739 119.544 213.81 115.553 212.095C107.623 208.687 99.316 206.185 90.839 204.566C88.141 204.051 85.421 203.657 82.69 203.363C81.27 204.073 79.852 204.787 78.431 205.494C94.135 207.805 109.254 212.5 123.255 220.098C125.258 221.185 127.229 222.327 129.166 223.525Z" fill="#F8F2EC"/>
<path id="Vector_92" d="M108.148 226.309C110.063 227.521 111.935 228.807 113.737 230.182C114.386 230.677 115.05 231.185 115.706 231.707C116.841 231.001 117.978 230.3 119.118 229.602C118.625 229.189 118.139 228.768 117.636 228.368C115.988 227.056 114.294 225.799 112.553 224.612C109.081 222.244 105.425 220.147 101.642 218.317C94.064 214.65 85.969 212.071 77.72 210.427C75.454 209.975 73.153 209.575 70.841 209.267C69.08 210.142 67.323 211.025 65.564 211.903C72.668 213.028 79.685 214.198 86.586 216.388C94.141 218.785 101.447 222.068 108.148 226.309Z" fill="#F8F2EC"/>
<path id="Vector_93" d="M93.073 243.005C93.801 243.617 94.495 244.28 95.188 244.944C96.33 244.197 97.472 243.449 98.614 242.701C97.884 242.039 97.118 241.41 96.403 240.792C94.923 239.514 93.391 238.299 91.825 237.128C88.706 234.796 85.394 232.715 81.975 230.852C75.106 227.109 67.776 224.299 60.237 222.236C56.796 221.295 53.306 220.542 49.793 219.916C48.467 220.606 47.144 221.301 45.818 221.993C45.994 222.175 46.235 222.319 46.565 222.384C61.27 225.298 75.846 230.501 88.151 239.214C89.844 240.412 91.487 241.672 93.073 243.005Z" fill="#F8F2EC"/>
<path id="Vector_94" d="M84.315 250.625C84.625 250.92 84.94 251.219 85.253 251.519C86.342 250.791 87.43 250.063 88.52 249.337C87.204 248.023 85.855 246.743 84.456 245.518C81.144 242.618 77.61 239.955 73.912 237.568C66.505 232.787 58.343 229.125 49.831 226.823C46.713 225.98 43.549 225.336 40.358 224.851C38.763 225.695 37.175 226.55 35.585 227.402C51.37 229.454 66.812 236.107 79.177 246.118C80.949 247.551 82.664 249.054 84.315 250.625Z" fill="#F8F2EC"/>
<path id="Vector_95" d="M47.262 239.18C48.271 238.59 49.275 237.99 50.282 237.395C46.044 235.75 41.711 234.348 37.298 233.229C34.214 232.447 31.097 231.822 27.958 231.327C26.473 232.068 24.989 232.811 23.511 233.564C31.207 234.988 38.817 237.072 46.174 239.824C46.538 239.611 46.898 239.392 47.262 239.18Z" fill="#F8F2EC"/>
</g>
</g>
</g>
<path id="Vector_96" d="M158.266 217.025C157.498 217.851 156.614 218.502 155.681 219.231C154.418 220.213 153.164 221.184 151.862 222.107C149.627 223.681 147.392 225.255 145.157 226.83C140.57 230.076 135.867 233.156 131.212 236.295C123.467 241.543 115.761 246.771 107.472 251.144C103.653 253.165 99.785 255.099 96.005 257.198C94.129 258.247 92.273 259.336 90.466 260.492C89.533 261.085 88.61 261.697 87.706 262.329C87.308 262.611 86.919 262.893 86.53 263.174C86.491 263.203 86.229 263.398 86.093 263.495C85.996 263.573 85.869 263.67 85.869 263.67C84.159 265.011 82.468 266.42 81.01 268.033C80.864 268.198 80.728 268.363 80.582 268.538C80.524 268.616 80.436 268.732 80.407 268.771C80.115 269.208 79.853 269.655 79.61 270.122C79.61 270.122 79.552 270.268 79.503 270.365C79.454 270.511 79.367 270.793 79.357 270.831C79.318 270.957 79.172 271.667 79.153 271.667C78.667 275.593 80.125 279.509 79.678 283.454C79.114 288.488 75.927 291.957 72.088 294.96C70.815 295.961 69.455 296.962 68.036 297.905C67.501 297.788 66.967 297.681 66.433 297.565C66.005 297.429 65.578 297.303 65.15 297.186C63.284 296.418 61.418 295.651 59.523 294.961C59.047 294.796 58.571 294.64 58.095 294.475C59.971 293.474 61.914 292.609 63.731 291.492C64.732 290.87 65.704 290.219 66.646 289.519C66.724 289.47 66.763 289.441 66.782 289.422C66.84 289.373 66.889 289.335 66.976 289.267C67.141 289.141 67.297 289.005 67.462 288.878C67.938 288.489 68.414 288.081 68.871 287.673C69.279 287.304 69.678 286.935 70.057 286.546C70.31 286.293 70.553 286.021 70.796 285.749C70.767 285.788 70.747 285.817 70.747 285.827C70.767 285.807 70.805 285.769 70.873 285.662C71.203 285.215 71.495 284.719 71.718 284.204C71.689 284.204 71.941 283.378 71.98 283.213C72.009 283.096 72.029 283.019 72.048 282.96C72.048 282.902 72.048 282.824 72.058 282.707C72.068 282.522 72.077 282.338 72.087 282.143C72.106 281.57 72.087 280.996 72.058 280.433C71.99 279.325 71.844 278.227 71.708 277.129C71.173 272.756 71.241 268.364 73.924 264.632C76.626 260.881 80.464 257.995 84.234 255.381C91.27 250.493 99.102 246.936 106.594 242.835C114.932 238.258 122.735 232.767 130.626 227.491C134.756 224.721 138.867 221.923 143.055 219.241C145.144 217.9 147.214 216.53 149.333 215.218L150.586 214.361C150.588 214.361 155.894 217.383 158.266 217.025Z" fill="#A4335A"/>
</g>
</g>
<g id="Group_60">
<path id="Vector_97" d="M40.7099 104.494C40.8629 103.304 39.9749 102.454 38.8419 102.354C35.7659 102.082 33.4399 99.649 32.0699 97.067C30.2479 93.631 29.7869 89.625 29.2989 85.824C29.2119 85.142 28.6389 84.838 28.0369 84.82C27.1839 84.215 25.6649 84.37 25.5029 85.611C25.2309 87.702 25.3209 89.834 25.0709 91.935C24.8229 94.02 24.4189 96.131 23.6359 98.087C22.4089 101.155 20.0529 103.829 16.7469 104.583C15.3739 104.896 15.5089 106.659 16.4049 107.238C16.6289 107.492 16.9639 107.654 17.4109 107.633C20.8919 107.475 23.2879 110.281 24.7329 113.124C25.5479 114.728 26.1729 116.435 26.7389 118.14C27.0309 119.02 27.3009 119.908 27.5499 120.801C27.8339 121.816 27.9189 123.125 28.7359 123.853C29.6389 124.656 30.9319 124.291 31.3139 123.155C31.4819 122.656 31.4189 122.112 31.2829 121.569C31.7219 118.384 32.4939 115.23 33.5969 112.214C34.1069 110.82 34.8219 109.483 35.9139 108.457C36.4009 108 36.9529 107.627 37.5359 107.303C38.1459 106.963 38.9319 106.791 39.4789 106.376C39.8039 106.129 40.0619 105.828 40.2109 105.483C40.4619 105.201 40.6609 104.875 40.7099 104.494Z" fill="white"/>
<path id="Vector_98" d="M337.481 80.729C337.618 79.665 336.823 78.905 335.81 78.815C333.058 78.572 330.978 76.395 329.752 74.085C328.122 71.012 327.71 67.428 327.273 64.028C327.195 63.418 326.683 63.146 326.144 63.13C325.381 62.589 324.022 62.728 323.877 63.837C323.634 65.707 323.714 67.615 323.49 69.494C323.268 71.36 322.907 73.247 322.207 74.997C321.109 77.741 319.001 80.134 316.045 80.808C314.816 81.088 314.938 82.665 315.739 83.183C315.939 83.41 316.239 83.555 316.639 83.537C319.753 83.395 321.897 85.906 323.189 88.449C323.918 89.884 324.477 91.41 324.984 92.936C325.246 93.723 325.487 94.517 325.71 95.316C325.964 96.224 326.04 97.395 326.772 98.047C327.579 98.766 328.737 98.439 329.078 97.423C329.228 96.976 329.172 96.49 329.05 96.004C329.443 93.155 330.133 90.333 331.12 87.635C331.576 86.388 332.216 85.192 333.193 84.274C333.629 83.865 334.122 83.532 334.644 83.241C335.19 82.937 335.893 82.783 336.382 82.411C336.673 82.19 336.904 81.92 337.037 81.612C337.259 81.362 337.437 81.07 337.481 80.729Z" fill="white"/>
<path id="Vector_99" d="M81.248 32.59C81.339 31.882 80.81 31.376 80.136 31.317C78.305 31.155 76.921 29.707 76.106 28.17C75.021 26.125 74.747 23.741 74.457 21.479C74.405 21.073 74.064 20.892 73.706 20.882C73.198 20.522 72.294 20.614 72.198 21.352C72.036 22.597 72.09 23.865 71.941 25.116C71.793 26.357 71.553 27.613 71.087 28.777C70.357 30.603 68.954 32.195 66.987 32.643C66.169 32.829 66.25 33.879 66.784 34.223C66.917 34.374 67.117 34.47 67.383 34.458C69.455 34.364 70.881 36.034 71.741 37.726C72.226 38.681 72.598 39.696 72.935 40.711C73.109 41.235 73.269 41.763 73.418 42.294C73.587 42.898 73.638 43.677 74.124 44.111C74.661 44.589 75.431 44.372 75.658 43.696C75.758 43.399 75.721 43.075 75.639 42.752C75.9 40.857 76.36 38.979 77.017 37.184C77.321 36.354 77.746 35.558 78.396 34.948C78.686 34.676 79.014 34.454 79.361 34.261C79.724 34.059 80.192 33.956 80.517 33.709C80.711 33.562 80.864 33.383 80.952 33.178C81.101 33.011 81.219 32.817 81.248 32.59Z" fill="white"/>
<path id="Vector_100" d="M277.355 265.214C277.452 264.464 276.891 263.928 276.178 263.865C274.239 263.694 272.773 262.16 271.909 260.532C270.76 258.366 270.47 255.841 270.162 253.445C270.107 253.015 269.746 252.823 269.366 252.812C268.828 252.431 267.871 252.528 267.769 253.31C267.598 254.628 267.654 255.972 267.497 257.297C267.341 258.612 267.086 259.942 266.593 261.175C265.82 263.109 264.334 264.795 262.25 265.27C261.384 265.468 261.47 266.579 262.035 266.944C262.176 267.104 262.387 267.206 262.669 267.193C264.864 267.093 266.374 268.862 267.285 270.654C267.799 271.665 268.193 272.741 268.55 273.816C268.734 274.371 268.904 274.93 269.062 275.493C269.241 276.133 269.295 276.958 269.81 277.417C270.379 277.924 271.194 277.693 271.435 276.977C271.541 276.662 271.501 276.319 271.415 275.977C271.692 273.969 272.178 271.981 272.874 270.079C273.196 269.2 273.646 268.357 274.335 267.71C274.642 267.422 274.99 267.187 275.357 266.982C275.742 266.768 276.237 266.659 276.582 266.397C276.787 266.241 276.95 266.051 277.043 265.834C277.199 265.66 277.324 265.454 277.355 265.214Z" fill="white"/>
</g>
</g>
</svg>
